PathFileType	4	(X/Y/Z)	 New Session 105.trc
DataRate	CameraRate	NumFrames	NumMarkers	Units	OrigDataRate	OrigDataStartFrame	OrigNumFrames
100	100	22	14	m	100	1	711
Frame#	Time	C7			T8			IJ			PX			AA			AC			AI			TS			SC			GH			LE			ME			US			RS			
		X1	Y1	Z1	X2	Y2	Z2	X3	Y3	Z3	X4	Y4	Z4	X5	Y5	Z5	X6	Y6	Z6	X7	Y7	Z7	X8	Y8	Z8	X9	Y9	Z9	X10	Y10	Z10	X11	Y11	Z11	X12	Y12	Z12	X13	Y13	Z13	X14	Y14	Z14	
1	0.0100	0.019878	0.098585	0.169965	0.023891	-0.117673	0.233247	0.000000	0.000000	0.000000	0.006357	-0.141336	-0.071567	0.207753	0.018205	0.163064	0.162944	0.057187	0.086192	0.094505	0.023681	0.209503	0.100712	-0.097690	0.235859	0.024464	0.009436	0.004625	0.222473	0.032249	0.124379	0.310440	-0.253308	0.105835	0.226271	-0.303518	0.118235	0.309391	-0.398699	-0.133876	0.293611	-0.323131	-0.153348	
2	0.0200	0.019914	0.098614	0.169863	0.023907	-0.117721	0.233246	0.000036	-0.000034	-0.000001	0.006329	-0.141347	-0.071626	0.207770	0.018157	0.162913	0.162949	0.057143	0.086067	0.094505	0.023680	0.209383	0.100704	-0.097688	0.235802	0.024494	0.009377	0.004496	0.222483	0.032202	0.124254	0.310103	-0.253422	0.105636	0.226183	-0.303592	0.118104	0.309204	-0.398656	-0.134010	0.294218	-0.323246	-0.153260	
3	0.0300	0.019954	0.098629	0.169753	0.023924	-0.117771	0.233235	0.000055	-0.000084	0.000004	0.006300	-0.141359	-0.071688	0.207786	0.018104	0.162780	0.162953	0.057101	0.085946	0.094509	0.023671	0.209275	0.100707	-0.097683	0.235774	0.024533	0.009314	0.004378	0.222487	0.032155	0.124130	0.309898	-0.253525	0.105484	0.226102	-0.303653	0.117995	0.309058	-0.398688	-0.134133	0.294487	-0.323343	-0.153264	
4	0.0400	0.019995	0.098630	0.169635	0.023941	-0.117821	0.233216	0.000053	-0.000148	0.000008	0.006271	-0.141372	-0.071752	0.207807	0.018052	0.162660	0.162961	0.057058	0.085841	0.094517	0.023654	0.209179	0.100718	-0.097675	0.235773	0.024572	0.009250	0.004270	0.222494	0.032105	0.124012	0.309804	-0.253623	0.105374	0.226018	-0.303707	0.117897	0.308934	-0.398770	-0.134247	0.294503	-0.323420	-0.153331	
5	0.0500	0.020031	0.098621	0.169503	0.023958	-0.117873	0.233195	0.000026	-0.000215	-0.000001	0.006241	-0.141384	-0.071816	0.207830	0.018000	0.162548	0.162974	0.057010	0.085755	0.094528	0.023630	0.209091	0.100734	-0.097665	0.235789	0.024597	0.009196	0.004172	0.222503	0.032047	0.123913	0.309783	-0.253723	0.105292	0.225907	-0.303767	0.117799	0.308809	-0.398874	-0.134355	0.294386	-0.323471	-0.153424	
6	0.0600	0.020062	0.098614	0.169360	0.023979	-0.117938	0.233188	-0.000026	-0.000279	-0.000033	0.006209	-0.141396	-0.071881	0.207845	0.017950	0.162444	0.162991	0.056963	0.085674	0.094538	0.023602	0.209006	0.100748	-0.097654	0.235802	0.024602	0.009155	0.004079	0.222509	0.031987	0.123835	0.309795	-0.253827	0.105218	0.225750	-0.303848	0.117712	0.308670	-0.398976	-0.134458	0.294236	-0.323497	-0.153515	
7	0.0700	0.020092	0.098618	0.169214	0.024003	-0.118015	0.233197	-0.000098	-0.000335	-0.000094	0.006174	-0.141409	-0.071943	0.207847	0.017903	0.162345	0.163002	0.056922	0.085585	0.094545	0.023574	0.208919	0.100753	-0.097645	0.235792	0.024588	0.009127	0.003989	0.222502	0.031930	0.123769	0.309803	-0.253930	0.105139	0.225559	-0.303947	0.117650	0.308520	-0.399064	-0.134560	0.294103	-0.323508	-0.153594	
8	0.0800	0.020125	0.098629	0.169077	0.024028	-0.118090	0.233201	-0.000174	-0.000379	-0.000182	0.006137	-0.141426	-0.072001	0.207843	0.017856	0.162248	0.163002	0.056887	0.085487	0.094547	0.023552	0.208826	0.100746	-0.097639	0.235744	0.024564	0.009109	0.003901	0.222478	0.031881	0.123701	0.309783	-0.254023	0.105051	0.225395	-0.304040	0.117599	0.308373	-0.399138	-0.134664	0.293994	-0.323525	-0.153665	
9	0.0900	0.020159	0.098642	0.168968	0.024047	-0.118149	0.233185	-0.000236	-0.000413	-0.000288	0.006100	-0.141448	-0.072052	0.207838	0.017807	0.162151	0.162994	0.056856	0.085384	0.094544	0.023535	0.208730	0.100730	-0.097637	0.235655	0.024537	0.009094	0.003818	0.222447	0.031833	0.123624	0.309739	-0.254105	0.104955	0.225316	-0.304099	0.117530	0.308238	-0.399199	-0.134766	0.293895	-0.323563	-0.153735	
10	0.1000	0.020186	0.098651	0.168894	0.024059	-0.118186	0.233141	-0.000276	-0.000444	-0.000390	0.006062	-0.141479	-0.072094	0.207828	0.017759	0.162056	0.162995	0.056823	0.085279	0.094540	0.023524	0.208631	0.100707	-0.097639	0.235536	0.024510	0.009081	0.003744	0.222419	0.031789	0.123541	0.309684	-0.254181	0.104853	0.225280	-0.304124	0.117443	0.308115	-0.399253	-0.134860	0.293791	-0.323628	-0.153810	
11	0.1100	0.020204	0.098657	0.168829	0.024063	-0.118198	0.233065	-0.000305	-0.000479	-0.000473	0.006026	-0.141521	-0.072125	0.207821	0.017721	0.161967	0.163003	0.056789	0.085179	0.094535	0.023516	0.208531	0.100688	-0.097641	0.235409	0.024482	0.009067	0.003679	0.222388	0.031751	0.123464	0.309624	-0.254252	0.104754	0.225231	-0.304125	0.117359	0.307997	-0.399303	-0.134941	0.293669	-0.323711	-0.153893	
12	0.1200	0.020213	0.098665	0.168746	0.024058	-0.118183	0.232946	-0.000337	-0.000525	-0.000527	0.005991	-0.141576	-0.072145	0.207814	0.017692	0.161887	0.163011	0.056760	0.085085	0.094530	0.023511	0.208426	0.100676	-0.097643	0.235287	0.024446	0.009050	0.003623	0.222366	0.031712	0.123392	0.309556	-0.254321	0.104665	0.225158	-0.304117	0.117288	0.307880	-0.399353	-0.135011	0.293519	-0.323796	-0.153989	
13	0.1300	0.020214	0.098682	0.168645	0.024042	-0.118135	0.232775	-0.000375	-0.000576	-0.000562	0.005956	-0.141641	-0.072156	0.207803	0.017667	0.161809	0.163014	0.056743	0.084990	0.094521	0.023511	0.208315	0.100673	-0.097647	0.235172	0.024393	0.009024	0.003572	0.222357	0.031671	0.123314	0.309482	-0.254385	0.104589	0.225077	-0.304120	0.117224	0.307766	-0.399406	-0.135075	0.293333	-0.323871	-0.154102	
14	0.1400	0.020211	0.098707	0.168539	0.024012	-0.118050	0.232548	-0.000405	-0.000625	-0.000602	0.005918	-0.141715	-0.072161	0.207792	0.017639	0.161714	0.163013	0.056730	0.084893	0.094510	0.023513	0.208197	0.100676	-0.097657	0.235056	0.024322	0.008985	0.003521	0.222351	0.031635	0.123228	0.309409	-0.254444	0.104524	0.224998	-0.304140	0.117150	0.307660	-0.399462	-0.135137	0.293106	-0.323940	-0.154237	
15	0.1500	0.020207	0.098735	0.168437	0.023970	-0.117929	0.232281	-0.000419	-0.000656	-0.000667	0.005878	-0.141791	-0.072166	0.207783	0.017606	0.161610	0.163013	0.056690	0.084803	0.094498	0.023519	0.208077	0.100679	-0.097672	0.234932	0.024243	0.008934	0.003466	0.222344	0.031610	0.123139	0.309341	-0.254499	0.104465	0.224920	-0.304178	0.117056	0.307561	-0.399517	-0.135204	0.292860	-0.324021	-0.154385	
16	0.1600	0.020204	0.098761	0.168346	0.023922	-0.117792	0.232011	-0.000419	-0.000669	-0.000757	0.005834	-0.141865	-0.072175	0.207775	0.017584	0.161519	0.163015	0.056607	0.084723	0.094486	0.023529	0.207959	0.100677	-0.097688	0.234803	0.024173	0.008879	0.003403	0.222333	0.031589	0.123046	0.309285	-0.254551	0.104405	0.224841	-0.304239	0.116948	0.307473	-0.399567	-0.135275	0.292640	-0.324114	-0.154522	
17	0.1700	0.020199	0.098782	0.168261	0.023879	-0.117666	0.231780	-0.000418	-0.000669	-0.000861	0.005787	-0.141936	-0.072188	0.207767	0.017578	0.161441	0.163004	0.056516	0.084644	0.094476	0.023545	0.207851	0.100665	-0.097700	0.234674	0.024126	0.008829	0.003330	0.222315	0.031567	0.122949	0.309252	-0.254601	0.104344	0.224772	-0.304304	0.116850	0.307399	-0.399608	-0.135346	0.292482	-0.324202	-0.154629	
18	0.1800	0.020187	0.098796	0.168177	0.023846	-0.117569	0.231612	-0.000426	-0.000670	-0.000966	0.005736	-0.141997	-0.072207	0.207760	0.017571	0.161359	0.162982	0.056456	0.084558	0.094467	0.023566	0.207754	0.100642	-0.097703	0.234553	0.024103	0.008786	0.003246	0.222289	0.031548	0.122851	0.309255	-0.254646	0.104284	0.224728	-0.304344	0.116784	0.307337	-0.399647	-0.135411	0.292390	-0.324267	-0.154698	
19	0.1900	0.020172	0.098806	0.168091	0.023825	-0.117506	0.231507	-0.000446	-0.000678	-0.001064	0.005684	-0.142046	-0.072236	0.207753	0.017554	0.161259	0.162949	0.056394	0.084475	0.094460	0.023592	0.207667	0.100612	-0.097695	0.234446	0.024095	0.008753	0.003153	0.222270	0.031532	0.122746	0.309297	-0.254686	0.104231	0.224717	-0.304349	0.116741	0.307282	-0.399697	-0.135464	0.292340	-0.324304	-0.154739	
20	0.2000	0.020160	0.098816	0.168007	0.023813	-0.117474	0.231452	-0.000476	-0.000694	-0.001151	0.005630	-0.142083	-0.072269	0.207741	0.017542	0.161160	0.162912	0.056341	0.084391	0.094455	0.023617	0.207587	0.100582	-0.097680	0.234357	0.024093	0.008733	0.003052	0.222267	0.031519	0.122634	0.309359	-0.254721	0.104188	0.224730	-0.304336	0.116699	0.307220	-0.399761	-0.135507	0.292298	-0.324330	-0.154770	
21	0.2100	0.020157	0.098834	0.167924	0.023810	-0.117463	0.231431	-0.000516	-0.000713	-0.001226	0.005575	-0.142114	-0.072300	0.207728	0.017541	0.161074	0.162881	0.056309	0.084308	0.094453	0.023636	0.207511	0.100558	-0.097663	0.234286	0.024084	0.008723	0.002952	0.222275	0.031507	0.122518	0.309410	-0.254751	0.104155	0.224748	-0.304326	0.116647	0.307146	-0.399833	-0.135542	0.292235	-0.324362	-0.154806	
22	0.2200	0.020162	0.098858	0.167850	0.023810	-0.117463	0.231423	-0.000560	-0.000733	-0.001286	0.005521	-0.142142	-0.072321	0.207718	0.017542	0.160997	0.162855	0.056286	0.084226	0.094451	0.023647	0.207439	0.100545	-0.097646	0.234229	0.024059	0.008714	0.002868	0.222281	0.031495	0.122407	0.309428	-0.254778	0.104128	0.224755	-0.304336	0.116595	0.307062	-0.399909	-0.135569	0.292139	-0.324410	-0.154850	
